<svg xmlns="http://www.w3.org/2000/svg" width="111" height="60" viewBox="0 0 111 60"><defs><linearGradient id="a" x1=".026%" x2="99.858%" y1="50.188%" y2="50.188%"><stop offset="0%"/><stop offset="38.97%" stop-color="#1B1510"/><stop offset="100%" stop-color="#2F0A00"/></linearGradient><linearGradient id="b" x1="-184.428%" x2="89.971%" y1="-35.886%" y2="74.228%"><stop offset="0%" stop-opacity=".4"/><stop offset="4.554%" stop-color="#0A0909" stop-opacity=".427"/><stop offset="19.86%" stop-color="#181410" stop-opacity=".519"/><stop offset="35.05%" stop-color="#211609" stop-opacity=".61"/><stop offset="49.76%" stop-color="#271400" stop-opacity=".699"/><stop offset="63.89%" stop-color="#2A1200" stop-opacity=".783"/><stop offset="77.28%" stop-color="#2D0E00" stop-opacity=".864"/><stop offset="89.65%" stop-color="#2E0B00" stop-opacity=".938"/><stop offset="100%" stop-color="#2F0A00"/></linearGradient><linearGradient id="c" x1="-10.845%" x2="116.467%" y1="24.229%" y2="87.018%"><stop offset="0%" stop-color="#F2C245" stop-opacity="0"/><stop offset="100%" stop-color="#D76446"/></linearGradient><linearGradient id="d" x1="74.621%" x2="-39.595%" y1="28.173%" y2="93.538%"><stop offset="0%" stop-color="#F2C245"/><stop offset="100%" stop-color="#D76446"/></linearGradient><linearGradient id="e" x1="115.449%" x2="10.228%" y1="144.008%" y2="-6.771%"><stop offset="0%" stop-color="#A14944"/><stop offset="51.43%" stop-color="#60281E"/><stop offset="100%" stop-color="#2F0A00"/></linearGradient><linearGradient id="f" x1="12.445%" x2="95.565%" y1="71.569%" y2="3.077%"><stop offset="0%" stop-color="#F2C245" stop-opacity="0"/><stop offset="16.29%" stop-color="#E7A145" stop-opacity=".163"/><stop offset="33.63%" stop-color="#DF8746" stop-opacity=".336"/><stop offset="50.92%" stop-color="#DB7646" stop-opacity=".509"/><stop offset="67.9%" stop-color="#D86C46" stop-opacity=".679"/><stop offset="84.43%" stop-color="#D76646" stop-opacity=".844"/><stop offset="100%" stop-color="#D76446"/></linearGradient></defs><g fill="none"><path fill="url(#a)" d="M29.46 41.298c-3.84 7.362-7.61 14.654-10.122 19.562 0 0 1.047.14 4.747-3.506l8.866-16.056h-3.49z" transform="translate(0 -1)"/><path fill="url(#b)" d="M24.992 1.963s18.012 17.389 22.48 32.043c-6.214 7.712-14.102 3.295-15.638 2.033-1.536-1.262-12.915-8.905-6.842-34.076z" transform="translate(0 -1)"/><path fill="url(#c)" d="M33.58.56s11.867 22.087 11.588 37.372c-8.308 5.47-14.381-1.192-15.498-2.875-1.047-1.612-9.564-12.34 3.91-34.496z" transform="translate(0 -1)"/><path fill="url(#d)" d="M60.666 19.352l-6.981-.07s-3.281-2.805-7.4-2.454c-4.05.42-12.636 7.923-17.313 21.946-4.678 14.023-3.98 11.218-3.98 11.218s9.006-2.033 16.057-5.469c6.981-3.436 6.632-8.905 6.911-11.71.28-2.804-1.256-6.94 2.304-9.885 4.259-2.244 10.402-3.576 10.402-3.576z" transform="translate(0 -1)"/><path fill="url(#e)" d="M5.026 9.536s24.016 7.011 34.697 17.95c-1.955 9.745-10.96 9.465-12.915 9.044-1.955-.35-15.568-1.823-21.782-26.994z" transform="translate(0 -1)"/><path fill="url(#f)" d="M.35 23.278s24.922-2.033 38.744 4.347c1.676 9.816-6.911 12.761-8.866 13.112-1.885.28-15.079 3.786-29.879-17.459z" transform="translate(0 -1)"/><path fill="#000" d="M64.436 31.744c-3.002 4.207-3.7 4.908-3.91 5.048-2.373 2.734-3.141 3.225-3.63 3.365l-.628.14-.14-.91c0-.211-.07-.632.21-1.684 1.047-3.646 1.326-4.697 1.326-4.978-.21-.42-.698-.841-1.326-1.192a30.555 30.555 0 0 1-1.257 4.628c-.419 1.683-.558 3.225-.419 4.417.07.561 1.047 1.122 2.653 1.543h.628c.28-.07.908-.35 2.025-1.473 0-.63.28-.911.558-1.051l2.025-2.665.628-1.052-.14-.21.21-.35c.628-.982.908-1.473 1.117-1.753l-.14-.14.14-.281c0-.07.07-.07.07-.14v-.07h.07c.07-.07.07-.14.14-.21l-.07-.211c0-.28 0-.561.07-.982l-.21.21z"/><path fill="#F2C245" d="M60.875 24.101c.35 0 .49 0 .49-.07v.07l.069.28.14.281s0 .14-.14.42c.14.351.21.562.21.562-.14.7-.42 1.332-.838 1.823.07.49-.629 1.051-2.025 1.682-.907-.28-1.885-.841-2.932-1.612l-.07-.561c-.21-.07-.279-.14-.21-.14v.07c0-.07.56-.14 1.676-.35l3.63-2.455z"/><path fill="#000" d="M74.21 24.592h.14c0 .07.069.14.139.28v.07c0 .14-.07.281-.28.421v.14c0 .07 0 .21.07.351 0 .07-.14.28-.349.631 0 .07-.14.21-.349.42 0 .211-.14.421-.489.772-.14.35-.349.701-.767 1.122 0 .07-.14.14-.35.28 0 .07-.14.28-.349.631 0 .07-.07.21-.279.421l-.419.912-1.326 2.874c-.35 1.052-.628 1.823-.838 2.454h.07c-.07.21-.21.561-.35 1.052h.07l-.418 1.402c0 .07 0 .14-.07.21 0 0 0 .07.07.14 0 0-.07.351-.28 1.053-.209.77-.418 1.332-.558 1.612-.14.771-.419 1.122-.838 1.122h-.488s-.14 0-.42-.07c0 .07 0 .07-.069.07h-.07c0-.14 0-.21-.07-.21l.07-.07v-.21h-.488v-.141l.07-.07.07.07h.069c.07 0 .07 0 .07-.07 0-.14-.07-.28-.07-.35v-.14h.07v.14h.14c0-.211-.14-.772-.42-1.613l.07-.14c-.07-.21-.21-.702-.349-1.543l.07-.07c-.07-.07-.14-.35-.14-.771h.07s0-.07-.07-.07c0-.07.07-.14.07-.14l-.07-.281h.07l-.07-.07v-.14l.07-.14c-.07 0-.07 0-.07-.07.07 0 .07-.071.07-.141l-.07-.14v-.21c-.07 0-.07-.07-.14-.141v-.14c.07-.14.14-.14.14-.14-.07-.28-.14-.421-.14-.421l.14-.21v-.14l-.14-.14.14-.141v-.14c-.07-.14-.14-.21-.14-.28l.07-.071-.07-.21c.07 0 .07-.07.14-.14 0 0 0-.21-.07-.421 0 0 0-.07.07-.07l-.07-.07v-.14s0-.07.07-.07c-.07-.07-.14-.492-.14-1.263 0-.21.07-.35.07-.42h-.07l.07-.07c-.07-1.193-.139-1.894-.279-2.034-.209 0-.349-.14-.418-.42v-.211c0-.07.14-.07.418-.14.49 0 .978.21 1.466.56.21 0 .28.562.35 1.613l-.07.07c.07.491.07.702.07.772 0 .07-.07.07-.07.14v.14c.07.14.14.14.14.14l-.07.21v.211c0 .14.07.21.07.21-.07.07-.07.14-.07.28v.562c0 .14 0 .28.07.42 0 0 0 .07-.07.07 0 .281.07.491.07.632 0 .42 0 1.192.07 2.173h-.07c.07 0 .07.35.139 1.052h.14l.558-2.454c.07 0 .14-.28.28-.841.348-.842.488-1.333.558-1.403h.07s0-.07-.07-.14c.419-.982.838-1.683 1.187-2.033v-.14l.07-.07-.07-.211v-.07c.209 0 .349-.07.349-.28.07 0 .14-.14.21-.421l-.07.07-.07-.07v-.07c0-.07.14-.14.349-.28l.07-.071c-.07 0-.07 0-.07-.07v-.07c.07 0 .14-.07.14-.14h-.07c.209-.351.488-.772.907-1.333.21 0 .349-.14.419-.49.349-.28.628-.561.837-.912.978-.841 1.676-1.472 2.234-1.893zm-9.146 16.687l.07.14v.07h-.07v-.21zm0 .35h.07s0 .071.07.141l-.07.07c0-.07 0-.14-.07-.21zM76.653 27.747c.698.35 1.117.561 1.256.561.559.701.838 1.192.908 1.332.28 0 .489.42.628 1.262l.21.421-.07.21c.21.21.349.842.489 1.823.209.21.279.842.209 1.683 0 .28-.07.49-.14.701 0 .07.07.14.07.21 0 0-.07.14-.14.351v.21c-.209.842-.698 1.964-1.396 3.366-.768 1.332-1.535 2.174-2.373 2.454-.28.14-.698.21-1.117.14H74.628c-1.605-.35-2.373-.7-2.373-.981-.21-.07-.42-.421-.698-.982l-.14-.14c.07-.21.14-.28.14-.35h-.07l-.14.07-.07-.07c.07 0 .07-.07.14-.141 0-.14-.07-.35-.21-.701l.07-.631c.07-.42.21-.701.28-.771v-.07c-.07-.07-.07-.14-.07-.14 0-.211.07-.351.14-.351l-.07-.07c.14-.632.279-1.122.418-1.403 0 0 0-.07-.07-.07.21-.63.35-.981.42-1.052v-.07s0-.07-.07-.07c.07-.21.07-.28.14-.28 0 0 0-.07-.07-.07.14-.561.209-.842.349-.772v-.14c.07-.35.14-.56.209-.56l-.07-.07v-.141A19.27 19.27 0 0 1 74.28 29.5c.14-.07.28-.42.559-.911v-.14c-.07 0-.14 0-.14-.07 0-.141.28-.211.908-.211.768.07 1.117.35 1.256.841v.07c-.558.28-.907.701-1.117 1.262l-.837 1.613c-.35.701-.629 1.683-.978 2.945-.07.21-.21.63-.349 1.192 0 .07.07.14 0 .14-.21.35-.28.701-.349 1.052h.07l-.07.07-.07 1.122c-.07.21-.14.35-.14.35v.14c.07.07.14.351.14.912.21.841.559 1.402.978 1.613h.279c.698.07 1.256-.35 1.815-1.262.07 0 .28-.28.628-.842.07-.07.35-.56.768-1.472.489-1.122.768-1.893.768-2.384l-.28.14v-.07c0-.07.07-.21.14-.35 0-.21.07-.421.07-.491 0-.28 0-1.122-.07-2.595-.279-1.542-.488-2.524-.628-2.874-.349-.561-.698-.982-1.117-1.262l.07-.21s-.07 0-.07-.07c.14.14.14.07.14 0zm-.35.07h.07v.07l-.07-.07zm1.746 8.274v.21c0 .07-.07.07-.07.07s0-.07-.07-.07c.07-.07.14-.14.14-.21zM80.632 42.12c.07 0 .07 0 .07.07v.141h-.14v-.07l.07-.14zm3.42-13.812l.839.28c.07.14.209.281.418.421l.07.35c0 .421-.14 1.052-.488 1.824l-.42 1.683.07.07c-.14.42-.209.7-.209.7l.07.07c-.14.351-.21.772-.28 1.263-.139 0-.279.631-.488 1.823-.489 1.613-.698 2.594-.698 2.945h.07c.488-.42.837-.561.907-.561h.14c.14-.14.14-.21.14-.28l.209.07v-.14h.07c.07 0 .14 0 .14.07.209-.07.348-.14.348-.281h.07l.14.07c.349-.21 1.117-.35 2.094-.49.07 0 .07.07.14.07.14 0 .488-.14 1.187-.351.279.07.349.14.349.14 0 .07-.07.07-.07.14.07 0 .07.07.14.14-.42.491-.768.702-.978.702-1.466.35-2.653.911-3.49 1.682-.838.842-1.397 1.473-1.606 1.823-.14.21-.35.351-.559.351-.628 0-1.117-.14-1.535-.49.07-.211.209-.772.349-1.754 0 0 0-.07-.07-.07.07-.14.14-.49.279-1.192.07 0 .14-.07.14-.28 0 0 0-.07-.07-.14.14-.632.28-1.122.488-1.613l-.07-.07c.07-.28.14-.42.21-.491 0-.07-.07-.07-.07-.14.07 0 .14-.28.28-.772 0-.07.14-.42.349-.911 0-.21 0-.35.07-.42 0-.07-.07-.07-.07-.141.07-.21.14-.42.279-.771h-.07c0-.14.07-.21.14-.21v-.07c0-.07-.07-.07-.14-.14.14-.702.35-1.263.489-1.614 0-.56.14-1.121.349-1.752.07 0 .07-.21.14-.631v-.07c0-.14-.07-.281-.14-.281l.07-.14-.07-.21c.07-.14.21-.14.349-.211zM89.568 37.353c.07 0 .14.14.14.42h-.07c-.07-.21-.07-.35-.07-.42zm5.934-9.325c1.047.07 1.675.42 1.885 1.051.07 0 .07.07.07.21 0 .211-.28.281-.699.351 0-.07 0-.07-.07-.07h-.279c0-.07 0-.07-.07-.07h-.07c-.418.07-.977.49-1.744 1.262-.908.982-1.746 2.104-2.374 3.366v.07s0 .07.07.07c0 0-.07.21-.28.49h.07c-.419.982-.698 1.753-.698 2.385-.14 1.191.14 2.103.838 2.874.07.07.21.14.349.14h.21c.628.07 1.396-.35 2.164-1.262.698-.7 1.117-1.262 1.256-1.682.35-.421.698-1.192 1.047-2.174v-.28c.07-.28.14-.491.14-.702.07-.7 0-1.191-.21-1.472 0-.14 0-.21-.07-.28 0 .07-.07.07-.07.07h-.069c0-.07 0-.14-.07-.21v-.07h.28c.07 0 .14.07.14.07h.069c.28 0 .558.21.838.42 0 .07.14.28.488.771.28.21.42.421.42.561 0 0 0 .21.07.631l-.07.842s0 .07.07.07l-.07.07v.28s0 .07-.07.07c0 .421 0 .702-.07.912v.28c0 .14-.07.351-.07.561v.14l-.419 1.964v.42c-.21.351-.489.982-.698 1.823-.07 0-.14.21-.35.702l-.907.981c-1.047 1.262-1.815 1.893-2.373 1.823-.07.14-.28.14-.559.14l-.489-.07c-.07-.07-.418-.28-.907-.49 0-.14-.07-.351-.21-.561 0-.28-.07-.491-.209-.561v-.14c0-.07.07-.07.07-.07h.07c0 .21.07.28.279.28.07-.07.21-.07.28-.07 0 .07.209.28.558.49 0 0 0 .07.07.14h.14c.488-.07 1.046-.63 1.814-1.612.978-1.332 1.466-2.173 1.536-2.454h-.21c.21-.14.35-.42.35-.841-.07 0-.28.21-.698.7-.629.492-1.048.772-1.327.702-.21.14-.558.21-1.047.21l-.419-.07c-1.256-.35-2.094-.911-2.583-1.542-.628-.982-.907-1.753-.838-2.454l-.07-.07s0 .07-.07.07V37.003h.07v.07h.07l.07-.14c0-.141-.07-.211-.21-.211l.07-.42s.07-.141.14-.351l.07.07c.07-.07.21-.561.489-1.403.349-.77.628-1.332.768-1.612.07 0 .209-.28.418-.772-.07 0-.07-.07-.14-.07.07-.07.07-.14.07-.21h.07v.14h.14c.07 0 .07 0 .14-.14v-.07c0-.07 0-.07-.14-.07v-.07c.14-.21.28-.35.419-.421.07 0 .07.07.14.07.349-.42.488-.63.488-.701v-.07l-.21.14H92.5c.14-.21.21-.28.28-.28h.07v.07c.208-.07.348-.21.348-.421h-.07v-.07l.21-.21.07.07h.07c.07 0 .07-.07.139-.14-.07 0-.14-.07-.14-.07l.14-.07v.14c.07 0 .21-.07.28-.21V29.5c-.07 0-.07 0-.07-.07.628-.631 1.116-.982 1.535-1.052 0-.07.14-.14.35-.21l-.21-.14zm-5.725 7.642h.07c0 .07-.07.07-.07.14h-.07s.07-.07.07-.14zm.07-.35h.07c0 .07-.07.07-.07.14h-.07c0-.07.07-.07.07-.14zm.28-.842v.07h-.07l.07-.07zm.139-.35l.07.07c0 .07-.07.07-.07.14l-.07-.07s0-.07.07-.14zm.35-.772v.14h-.07l.07-.14zm.418-.7v.07h-.07l.07-.07zm.07-.211v.07h-.07l.07-.07zm.628-.701v.14c.07 0 .07 0 .07-.07v-.07h-.07zm.14-.14h.07v-.07c-.07 0-.07.07-.07.07zm.21-.561h.069c-.07.07-.07.14-.14.14v-.07c.07 0 .07-.07.07-.07zm3.35-3.086v.07h-.07s0-.07.07-.07zM106.672 28.308l.768.07c.07 0 .07-.07.14-.07.558.28.837.49.837.561 0 0 .07.07.07.14-.14.701-.14 1.122-.14 1.192 0 0 0 .07.07.28-.35.842-.559 1.824-.768 2.945 0 0 0 .07.07.07-.07.14-.07.21-.07.281h.07c-.07.14-.14.56-.28 1.122l.07.07c.559 0 1.257-.14 2.304-.35.35 0 .489.07.489.28 0 0 .07.07.14.07v.07c-.28.21-.559.42-.768.49-.35.141-1.048.281-2.165.422-.209 0-.349.42-.418 1.332-.07 0-.21.7-.35 2.103 0 0-.07 0-.07.07l.07.28c-.14.562-.209 1.263-.209 2.104h.07l-.07.07v.07c0 .421 0 .842.07 1.333l-.07.28v.35c-.07 0-.07 0-.07.07.14.492.28.842.42 1.123 0 0-.14.07-.28.28h-.14c-.419 0-.768-.35-.977-1.122 0-.07.07-.07.07-.14-.14 0-.21-.28-.21-.841v-.14c0-.07 0-.14.07-.14-.07-.07-.07-.211-.14-.422l.07-.07v-.63c0-.07 0-.14-.07-.14.07-.281.07-.562.07-.912h-.07l.07-.07s0-.07-.07-.281c.07-.56.14-.911.14-1.122-.07-.07-.07-.14-.07-.21l.14-.14s0-.07-.07-.07c.14-1.192.21-2.034.28-2.455l-.07-.07h-.07c-1.327.14-1.955.28-1.955.421-.21.49-.768 2.033-1.745 4.558l-.35.14c-.837 0-1.186-.21-1.186-.491a.864.864 0 0 1-.21-.14v-.07c.28-.14.49-.631.699-1.403.209-.35.349-.841.488-1.472.14-.14.28-.49.489-.912 0-.07-.35-.21-1.117-.35l-.21-.21c0-.07.07-.07.07-.14h-.279v-.07l.14-.141.21.07h.069c1.117-.21 1.675-.35 1.675-.42.21-.211.35-.421.42-.702v-.14c.209-.07.488-.561.977-1.472 0-.07-.07-.07-.07-.14.14 0 .28-.14.419-.421v-.21c.07 0 .07-.07.14-.211.139 0 .628-.631 1.326-1.823.628-.841.907-1.262.907-1.332 0-.07-.07-.07-.07-.14l.35-.351v-.42s-.07 0-.07-.141zm-.35 3.786c0 .14-.279.491-.837 1.192-.698 1.052-1.047 1.753-1.047 2.034h.14c.907-.07 1.396-.21 1.396-.421 0-.21 0-.28.07-.28l-.07-.07c.07-.07.14-.492.209-1.263 0-.07-.07-.07-.07-.14l.14-.701-.07-.07c0-.07.07-.07.07-.14l.07-.14z"/></g></svg>